<svg width="23" height="23" viewBox="0 0 23 23" fill="none" xmlns="http://www.w3.org/2000/svg">
<g clip-path="url(#clip0_103_135)">
<path d="M19.9903 0.388184H3.00982C1.56193 0.388184 0.388184 1.56193 0.388184 3.00982V19.9885C0.388184 21.4364 1.56193 22.6101 3.00982 22.6101H19.9903C21.4382 22.6101 22.6119 21.4364 22.6119 19.9885V3.00982C22.6119 1.56193 21.4382 0.388184 19.9903 0.388184Z" fill="url(#paint0_linear_103_135)"/>
<path d="M9.45672 10.8316C9.45672 10.8316 11.3434 10.6914 11.3434 8.4795C11.3434 6.26754 9.79992 5.18762 7.84492 5.18762H1.41211V17.5501H7.84492C7.84492 17.5501 11.7711 17.6741 11.7711 13.9007C11.7711 13.9007 11.9436 10.8316 9.45672 10.8316ZM4.24578 7.3852H7.83953C7.83953 7.3852 8.71461 7.3852 8.71461 8.67176C8.71461 9.95832 8.2007 10.1452 7.61672 10.1452H4.24758L4.24578 7.3852ZM7.67781 15.3525H4.24758V12.0499H7.84133C7.84133 12.0499 9.14406 12.0319 9.14406 13.7479C9.14766 15.1764 8.19531 15.3382 7.67961 15.3525H7.67781ZM17.009 8.33395C12.2545 8.33395 12.2598 13.0831 12.2598 13.0831C12.2598 13.0831 11.9328 17.8089 17.009 17.8089C17.009 17.8089 21.2388 18.0497 21.2388 14.5224H19.0646C19.0646 14.5224 19.1365 15.8521 17.088 15.8521C17.088 15.8521 14.912 15.9976 14.912 13.6958H21.3179C21.3179 13.6958 22.0133 8.33395 17.009 8.33395ZM18.9424 12.0499H14.8815C14.8815 12.0499 15.1474 10.1452 17.0575 10.1452C18.9676 10.1452 18.9424 12.0499 18.9424 12.0499ZM14.3496 5.91715H19.4491V7.43911H14.3496V5.91715Z" fill="white"/>
</g>
<defs>
<linearGradient id="paint0_linear_103_135" x1="11.5001" y1="0.388184" x2="11.5001" y2="22.6119" gradientUnits="userSpaceOnUse">
<stop stop-color="#005CFF"/>
<stop offset="1" stop-color="#0047AD"/>
</linearGradient>
<clipPath id="clip0_103_135">
<rect width="23" height="23" fill="white"/>
</clipPath>
</defs>
</svg>
