<svg width="21" height="21" viewBox="0 0 21 21" fill="none" xmlns="http://www.w3.org/2000/svg">
<g clip-path="url(#clip0_104_304)">
<path d="M18.2521 0.35437H2.74816C1.42618 0.35437 0.354492 1.42605 0.354492 2.74804V18.2503C0.354492 19.5723 1.42618 20.644 2.74816 20.644H18.2521C19.5741 20.644 20.6457 19.5723 20.6457 18.2503V2.74804C20.6457 1.42605 19.5741 0.35437 18.2521 0.35437Z" fill="#5A749C"/>
<path d="M8.63463 9.88968C8.63463 9.88968 10.3573 9.76171 10.3573 7.74211C10.3573 5.7225 8.94799 4.73648 7.16299 4.73648H1.28955V16.024H7.16299C7.16299 16.024 10.7478 16.1372 10.7478 12.6919C10.7478 12.6919 10.9053 9.88968 8.63463 9.88968ZM3.87682 6.74296H7.15807C7.15807 6.74296 7.95705 6.74296 7.95705 7.91765C7.95705 9.09234 7.48783 9.26296 6.95463 9.26296H3.87846L3.87682 6.74296ZM7.01041 14.0175H3.87846V11.002H7.15971C7.15971 11.002 8.34916 10.9856 8.34916 12.5524C8.35244 13.8567 7.48291 14.0044 7.01205 14.0175H7.01041ZM15.5302 7.60922C11.1891 7.60922 11.194 11.9454 11.194 11.9454C11.194 11.9454 10.8954 16.2602 15.5302 16.2602C15.5302 16.2602 19.3922 16.4801 19.3922 13.2595H17.4071C17.4071 13.2595 17.4727 14.4736 15.6024 14.4736C15.6024 14.4736 13.6156 14.6065 13.6156 12.5048H19.4644C19.4644 12.5048 20.0993 7.60922 15.5302 7.60922ZM17.2955 11.002H13.5877C13.5877 11.002 13.8305 9.26296 15.5745 9.26296C17.3185 9.26296 17.2955 11.002 17.2955 11.002ZM13.1021 5.40257H17.7581V6.79218H13.1021V5.40257Z" fill="white"/>
</g>
<defs>
<clipPath id="clip0_104_304">
<rect width="21" height="21" fill="white"/>
</clipPath>
</defs>
</svg>
