<svg width="23" height="23" viewBox="0 0 23 23" fill="none" xmlns="http://www.w3.org/2000/svg">
<g clip-path="url(#clip0_103_126)">
<path d="M11.4998 21.7679C18.0712 21.7679 21.7676 18.0715 21.7676 11.5C21.7676 4.92861 18.0712 1.23218 11.4998 1.23218C4.92836 1.23218 1.23193 4.92861 1.23193 11.5C1.23193 18.0715 4.92836 21.7679 11.4998 21.7679Z" fill="#D7E0FF"/>
<path d="M11.4998 21.7679C18.0712 21.7679 21.7676 18.0715 21.7676 11.5C21.7676 4.92861 18.0712 1.23218 11.4998 1.23218C4.92836 1.23218 1.23193 4.92861 1.23193 11.5C1.23193 18.0715 4.92836 21.7679 11.4998 21.7679Z" stroke="#4147D5" stroke-linecap="round" stroke-linejoin="round"/>
<path d="M3.24937 18.359C7.09859 14.8186 10.8804 13.1018 14.6771 12.5104C17.0182 12.1424 19.3658 12.2032 21.7364 12.5268M1.35352 9.52695C5.14895 9.99716 9.00157 9.48815 12.5447 8.04838C15.4197 6.88852 17.6819 5.28838 19.0241 3.82788" stroke="#4147D5" stroke-linecap="round" stroke-linejoin="round"/>
<path d="M6.96533 1.96985C9.1787 3.64048 11.0693 5.70028 12.5445 8.04842C13.4694 9.52864 14.166 11.0368 14.6769 12.5088C15.8138 15.7863 16.024 18.8913 15.7448 21.1338" stroke="#4147D5" stroke-linecap="round" stroke-linejoin="round"/>
</g>
<defs>
<clipPath id="clip0_103_126">
<rect width="23" height="23" fill="white"/>
</clipPath>
</defs>
</svg>
