<svg width="21" height="21" viewBox="0 0 21 21" fill="none" xmlns="http://www.w3.org/2000/svg">
<path d="M10.5 19.875C16.5 19.875 19.875 16.5 19.875 10.5C19.875 4.5 16.5 1.125 10.5 1.125C4.5 1.125 1.125 4.5 1.125 10.5C1.125 16.5 4.5 19.875 10.5 19.875Z" fill="#D7E0FF"/>
<path d="M10.5 19.875C16.5 19.875 19.875 16.5 19.875 10.5C19.875 4.5 16.5 1.125 10.5 1.125C4.5 1.125 1.125 4.5 1.125 10.5C1.125 16.5 4.5 19.875 10.5 19.875Z" stroke="#5A749C" stroke-linecap="round" stroke-linejoin="round"/>
<path d="M2.96684 16.7625C6.48134 13.53 9.93434 11.9625 13.4008 11.4225C15.5383 11.0865 17.6818 11.142 19.8463 11.4375M1.23584 8.69849C4.70124 9.12782 8.21885 8.66307 11.4538 7.3485C14.0788 6.2895 16.1443 4.8285 17.3698 3.495" stroke="#5A749C" stroke-linecap="round" stroke-linejoin="round"/>
<path d="M6.35986 1.79849C8.38076 3.32385 10.1069 5.20454 11.4539 7.34849C12.2984 8.69999 12.9344 10.077 13.4009 11.421C14.4389 14.4135 14.6309 17.2485 14.3759 19.296" stroke="#5A749C" stroke-linecap="round" stroke-linejoin="round"/>
</svg>
