<svg width="25" height="25" viewBox="0 0 25 25" fill="none" xmlns="http://www.w3.org/2000/svg">
<path d="M9.375 3.125H12.5V9.375H9.375C8.5462 9.375 7.75134 9.04576 7.16529 8.45971C6.57924 7.87366 6.25 7.0788 6.25 6.25C6.25 5.4212 6.57924 4.62634 7.16529 4.04029C7.75134 3.45424 8.5462 3.125 9.375 3.125Z" fill="#F4511E"/>
<path d="M15.625 9.375H12.5V3.125H15.625C16.4538 3.125 17.2487 3.45424 17.8347 4.04029C18.4208 4.62634 18.75 5.4212 18.75 6.25C18.75 7.0788 18.4208 7.87366 17.8347 8.45971C17.2487 9.04576 16.4538 9.375 15.625 9.375Z" fill="#FF8A65"/>
<path d="M12.5 12.5C12.5 14.2259 13.8991 15.625 15.625 15.625C17.3509 15.625 18.75 14.2259 18.75 12.5C18.75 10.7741 17.3509 9.375 15.625 9.375C13.8991 9.375 12.5 10.7741 12.5 12.5Z" fill="#29B6F6"/>
<path d="M9.375 9.375H12.5V15.625H9.375C8.5462 15.625 7.75134 15.2958 7.16529 14.7097C6.57924 14.1237 6.25 13.3288 6.25 12.5C6.25 11.6712 6.57924 10.8763 7.16529 10.2903C7.75134 9.70424 8.5462 9.375 9.375 9.375Z" fill="#7C4DFF"/>
<path d="M9.375 15.625H12.5V18.75C12.5 19.5788 12.1708 20.3737 11.5847 20.9597C10.9987 21.5458 10.2038 21.875 9.375 21.875C8.5462 21.875 7.75134 21.5458 7.16529 20.9597C6.57924 20.3737 6.25 19.5788 6.25 18.75C6.25 17.9212 6.57924 17.1263 7.16529 16.5403C7.75134 15.9542 8.5462 15.625 9.375 15.625Z" fill="#00E676"/>
</svg>
