<svg width="52" height="48" viewBox="0 0 52 48" fill="none" xmlns="http://www.w3.org/2000/svg">
<path d="M0 0V4.5C0 16.95 5.60585 27.84 13.9512 33.9V48H52V42C52 34.02 38.48 30 31.7073 30H31.0732C19.0244 30 8.87805 18 8.87805 4.5V0M31.7073 0C29.0163 0 26.4356 1.26428 24.5328 3.51472C22.63 5.76515 21.561 8.8174 21.561 12C21.561 15.1826 22.63 18.2348 24.5328 20.4853C26.4356 22.7357 29.0163 24 31.7073 24C34.3983 24 36.9791 22.7357 38.8819 20.4853C40.7847 18.2348 41.8537 15.1826 41.8537 12C41.8537 8.8174 40.7847 5.76515 38.8819 3.51472C36.9791 1.26428 34.3983 0 31.7073 0Z" fill="#0095FF"/>
</svg>
