<svg width="25" height="25" viewBox="0 0 25 25" fill="none" xmlns="http://www.w3.org/2000/svg">
<g clip-path="url(#clip0_9_77)">
<path d="M4.43359 0.3125H20.5859C23.0273 0.3125 25.0195 2.28516 25.0195 4.74609V20.2734C25.0195 22.7148 23.0469 24.707 20.5859 24.707H4.43359C1.97266 24.6875 0 22.7148 0 20.2539V4.74609C0 2.28516 1.97266 0.3125 4.43359 0.3125Z" fill="#330000"/>
<path d="M12.0896 14.9023H8.20289L7.42164 17.3438C7.40211 17.4414 7.32398 17.5 7.22633 17.4805H5.2732C5.15601 17.4805 5.13648 17.4219 5.15601 17.2852L8.51539 7.63672C8.55445 7.53906 8.57398 7.42188 8.61304 7.28516C8.65211 7.07031 8.67164 6.83594 8.67164 6.60156C8.65211 6.54297 8.7107 6.50391 8.74976 6.48438H11.4451C11.5232 6.48438 11.5623 6.52344 11.5818 6.5625L15.3904 17.2852C15.4295 17.4023 15.3904 17.4609 15.2927 17.4609H13.1052C13.0271 17.4805 12.9685 17.4219 12.9294 17.3438L12.0896 14.9023ZM8.80836 12.7734H11.4451C11.3865 12.5586 11.3084 12.2852 11.2107 12.0312C11.113 11.7578 11.0154 11.4453 10.9373 11.1328C10.8396 10.8008 10.742 10.4883 10.6443 10.1758C10.5466 9.84375 10.449 9.55078 10.3709 9.25781C10.2927 8.96484 10.2146 8.69141 10.1365 8.4375H10.1169C10.0193 8.88672 9.90211 9.33594 9.76539 9.78516C9.60914 10.293 9.45289 10.8008 9.27711 11.3281C9.12086 11.8555 8.96461 12.3438 8.80836 12.7734ZM17.7146 8.33984C17.363 8.35938 17.031 8.22266 16.7966 7.96875C16.5623 7.71484 16.4255 7.36328 16.4451 7.01172C16.4255 6.66016 16.5623 6.32813 16.8162 6.09375C17.0701 5.85938 17.4021 5.72266 17.7341 5.72266C18.1443 5.72266 18.4568 5.83984 18.6912 6.09375C18.9255 6.34766 19.0427 6.67969 19.0427 7.01172C19.0623 7.36328 18.9255 7.71484 18.6716 7.96875C18.4177 8.22266 18.0662 8.35938 17.7146 8.33984ZM16.5427 17.3828V9.35547C16.5427 9.25781 16.5818 9.21875 16.6795 9.21875H18.7498C18.8474 9.21875 18.8865 9.27734 18.8865 9.35547V17.3828C18.8865 17.5 18.8474 17.5586 18.7498 17.5586H16.699C16.6013 17.5391 16.5427 17.4805 16.5427 17.3828Z" fill="#FF9A00"/>
</g>
<defs>
<clipPath id="clip0_9_77">
<rect width="25" height="25" fill="white"/>
</clipPath>
</defs>
</svg>
