<svg width="24" height="24" viewBox="0 0 24 24" fill="none" xmlns="http://www.w3.org/2000/svg">
<g clip-path="url(#clip0_104_232)">
<path d="M18.6406 -0.5H5.35938C2.12333 -0.5 -0.5 2.12333 -0.5 5.35938V18.6406C-0.5 21.8767 2.12333 24.5 5.35938 24.5H18.6406C21.8767 24.5 24.5 21.8767 24.5 18.6406V5.35938C24.5 2.12333 21.8767 -0.5 18.6406 -0.5Z" fill="white"/>
<path d="M18.6406 -0.5H5.35938C2.12333 -0.5 -0.5 2.12333 -0.5 5.35938V18.6406C-0.5 21.8767 2.12333 24.5 5.35938 24.5H18.6406C21.8767 24.5 24.5 21.8767 24.5 18.6406V5.35938C24.5 2.12333 21.8767 -0.5 18.6406 -0.5Z" fill="#5A749C"/>
<path d="M17.5386 20.7583H20.397C20.5006 20.7583 20.5999 20.7172 20.6732 20.6439C20.7464 20.5707 20.7876 20.4714 20.7876 20.3678L20.7891 14.3285C20.7891 11.172 20.1089 8.7457 16.4201 8.7457C15.0179 8.69355 13.6955 9.41641 12.9819 10.6234C12.9784 10.6293 12.9731 10.6339 12.9668 10.6364C12.9605 10.639 12.9535 10.6394 12.9469 10.6376C12.9403 10.6358 12.9345 10.632 12.9303 10.6266C12.9262 10.6212 12.9239 10.6145 12.9238 10.6077V9.42773C12.9238 9.32413 12.8827 9.22478 12.8094 9.15152C12.7362 9.07826 12.6368 9.03711 12.5332 9.03711H9.82061C9.71701 9.03711 9.61765 9.07826 9.54439 9.15152C9.47114 9.22478 9.42998 9.32413 9.42998 9.42773V20.3672C9.42998 20.4708 9.47114 20.5701 9.54439 20.6434C9.61765 20.7167 9.71701 20.7578 9.82061 20.7578H12.6788C12.7824 20.7578 12.8818 20.7167 12.955 20.6434C13.0283 20.5701 13.0694 20.4708 13.0694 20.3672V14.9597C13.0694 13.4307 13.3595 11.9499 15.2551 11.9499C17.1237 11.9499 17.1479 13.6995 17.1479 15.0587V20.3677C17.1479 20.4713 17.1891 20.5706 17.2624 20.6439C17.3356 20.7171 17.435 20.7583 17.5386 20.7583ZM3.21094 5.32305C3.21094 6.48164 4.16475 7.43496 5.32344 7.43496C6.48184 7.43486 7.43506 6.48096 7.43506 5.32256C7.43486 4.16416 6.48154 3.21094 5.32305 3.21094C4.16426 3.21094 3.21094 4.16445 3.21094 5.32305ZM3.89053 20.7583H6.75254C6.85614 20.7583 6.9555 20.7171 7.02875 20.6439C7.10201 20.5706 7.14316 20.4713 7.14316 20.3677V9.42773C7.14316 9.32413 7.10201 9.22478 7.02875 9.15152C6.9555 9.07826 6.85614 9.03711 6.75254 9.03711H3.89053C3.78693 9.03711 3.68757 9.07826 3.61431 9.15152C3.54106 9.22478 3.4999 9.32413 3.4999 9.42773V20.3677C3.4999 20.4713 3.54106 20.5706 3.61431 20.6439C3.68757 20.7171 3.78693 20.7583 3.89053 20.7583Z" fill="white"/>
</g>
<defs>
<clipPath id="clip0_104_232">
<rect width="25" height="25" fill="white" transform="translate(-0.5 -0.5)"/>
</clipPath>
</defs>
</svg>
