<svg width="25" height="25" viewBox="0 0 25 25" fill="none" xmlns="http://www.w3.org/2000/svg">
<g clip-path="url(#clip0_9_84)">
<path d="M0 6.25C0 2.79824 2.79824 0 6.25 0H18.75C22.2018 0 25 2.79824 25 6.25V18.75C25 22.2018 22.2018 25 18.75 25H6.25C2.79824 25 0 22.2018 0 18.75V6.25Z" fill="#FFDD33"/>
<path d="M16.6206 4.76562H14.3512L16.2424 8.08848L12.0817 4.76562H9.8123L11.8927 8.82695L7.54287 4.76562H5.27344L7.54287 9.93525L5.27344 20.2734H7.54287L11.8927 9.19668L9.8123 20.2734H12.0817L16.2424 8.4582L14.3512 20.2734H16.6206L20.7812 7.3499L16.6206 4.76562Z" fill="black"/>
</g>
<defs>
<clipPath id="clip0_9_84">
<rect width="25" height="25" fill="white"/>
</clipPath>
</defs>
</svg>
