<svg width="34" height="34" viewBox="0 0 34 34" fill="none" xmlns="http://www.w3.org/2000/svg">
<g clip-path="url(#clip0_214_858)">
<path d="M28.6875 24.9156C28.6875 31.3438 23.4813 31.3438 17 31.3438C10.5188 31.3438 5.3125 31.3438 5.3125 24.9156C5.3125 18.4875 10.5719 7.96875 17 7.96875C23.4281 7.96875 28.6875 18.4344 28.6875 24.9156Z" fill="#DBB471"/>
<path opacity="0.5" d="M28.6875 24.9156C28.6875 22.7375 28.1031 20.0813 27.0406 17.5312C27.2531 19.1781 26.8281 22.1 21.7813 23.2156C14.6094 24.7563 18.3281 26.775 15.5125 27.0406C13.1219 27.2531 6.7469 26.2969 5.4719 22.6844C5.36565 23.4813 5.2594 24.225 5.2594 24.9688C5.31252 31.3438 10.5719 31.3438 17 31.3438C23.4282 31.3438 28.6875 31.3438 28.6875 24.9156Z" fill="#89664C"/>
<path d="M20.1344 21.8346C19.9219 20.7721 19.0188 20.4533 18.0625 20.4002V18.9127C18.3281 19.0189 18.6469 19.1783 18.8594 19.3377C19.2844 19.6033 19.7094 18.9127 19.2844 18.6471C18.9125 18.4346 18.4875 18.2221 18.0625 18.0627V16.3096C18.0625 15.7783 17.2656 15.7783 17.2656 16.3096V17.8502C16.8406 17.7971 16.4156 17.7971 15.9906 17.8502C15.9375 17.4783 15.8313 17.1064 15.725 16.7346C15.6188 16.2033 14.8219 16.4158 14.9813 16.9471C15.0875 17.3189 15.1406 17.6908 15.2469 18.0627C15.1938 18.0627 15.1938 18.0627 15.1406 18.1158C14.0781 18.5408 13.3875 19.6033 14.1844 20.6127C14.5563 21.0908 15.0344 21.2502 15.5656 21.3564C15.6188 22.0471 15.6188 22.7377 15.6188 23.4283C15.2469 23.2158 14.9281 22.8971 14.6625 22.6314C14.2906 22.2596 13.7594 22.8439 14.0781 23.2158C14.5563 23.7471 15.0875 24.1189 15.6188 24.3846C15.6188 24.9689 15.6719 25.5533 15.725 26.1377C15.7781 26.6689 16.575 26.6689 16.5219 26.1377C16.4688 25.6064 16.4156 25.1283 16.4156 24.5971C16.7344 24.6502 17.0531 24.6502 17.3719 24.6502C17.425 25.1814 17.4781 25.7127 17.5313 26.2971C17.5844 26.8283 18.3813 26.8283 18.3281 26.2971C18.275 25.7127 18.2219 25.1283 18.1688 24.4908C19.3375 24.0658 20.4 23.1627 20.1344 21.8346ZM17.2656 18.6471V20.4002C17 20.4002 16.7875 20.4533 16.575 20.4533H16.3094L16.15 18.5408C16.5219 18.5408 16.8938 18.5939 17.2656 18.6471ZM15.3531 20.3471C15.1406 20.2939 14.9281 20.1346 14.7156 19.9752C14.2375 19.4971 14.9281 19.0721 15.3531 18.8596C15.4063 19.3908 15.4594 19.8689 15.5125 20.4002C15.4594 20.4002 15.4063 20.4002 15.3531 20.3471ZM17.1063 23.7471C16.8406 23.8002 16.6281 23.7471 16.4156 23.6939C16.3625 22.8971 16.3625 22.1002 16.3625 21.2502C16.6813 21.2502 17 21.1971 17.3188 21.1971C17.3188 22.0471 17.3719 22.8439 17.3719 23.6939C17.2656 23.7471 17.2125 23.7471 17.1063 23.7471ZM18.8594 23.1627C18.6469 23.3221 18.3813 23.4283 18.1688 23.5346C18.1156 22.7377 18.1156 21.9939 18.1156 21.1971H18.3813C19.3906 21.4096 19.6563 22.5252 18.8594 23.1627Z" fill="#89664C"/>
<path d="M18.0625 29.2188H16.8406V31.3438L21.7813 34L32.9375 30.5469V28.6875L28.8469 26.2969L18.0625 29.2188Z" fill="#699635"/>
<path d="M17 27.9969C17 27.9969 18.275 30.0687 21.8875 31.875C21.8875 31.875 27.5188 31.6094 32.9375 27.9969C32.9375 27.9969 29.8031 26.4562 28.9 24.4375C28.9 24.4375 26.775 27.4125 17 27.9969Z" fill="#83BF4F"/>
<path d="M14.6094 29.1654L15.7781 29.1123L15.9375 31.0779L11.3156 33.9998L0.212476 31.6092L0.0531006 29.8561L3.82498 27.2529L14.6094 29.1654Z" fill="#699635"/>
<path d="M15.5125 27.9437C15.5125 27.9437 14.3969 30.0156 11.05 31.9813C11.05 31.9813 5.57812 32.1406 0 29.2188C0 29.2188 2.975 27.5187 3.66563 25.5C3.66563 25.5 6.00313 28.1562 15.5125 27.9437Z" fill="#83BF4F"/>
<path d="M12.8562 28.5283C12.8562 28.5283 12.6969 28.9533 13.4406 29.0065L11.475 30.6533C11.475 30.6533 10.3062 30.5471 10.0406 31.344C10.0406 31.344 5.25936 30.8127 2.17811 29.4315C2.17811 29.4315 2.81561 28.9533 2.01874 28.6346C2.01874 28.6346 2.92186 27.9971 3.13436 27.4127C3.13436 27.4127 3.98436 27.519 4.24999 26.8815C4.35624 26.8283 7.54374 28.7408 12.8562 28.5283Z" stroke="#699635" stroke-width="0.25" stroke-miterlimit="10"/>
<path d="M4.67502 29.2719C5.23249 29.2719 5.6844 28.9627 5.6844 28.5812C5.6844 28.1998 5.23249 27.8906 4.67502 27.8906C4.11756 27.8906 3.66565 28.1998 3.66565 28.5812C3.66565 28.9627 4.11756 29.2719 4.67502 29.2719Z" fill="#699635"/>
<path d="M10.0937 27.7312C10.0937 27.7312 8.87186 29.3249 6.21561 31.503L6.37499 32.9374L4.51561 32.5124L4.40936 30.9718C4.40936 30.9718 7.11874 28.4749 7.70311 27.253C7.64999 27.253 8.60624 27.5718 10.0937 27.7312ZM22.3656 27.3593C22.3656 27.3593 22.8437 28.6343 26.4562 30.9718V32.5124L28.5281 31.8749V30.2812C28.5281 30.2812 26.0312 28.528 24.5437 26.7749L22.3656 27.3593Z" fill="#F9F3D9"/>
<path d="M19.3375 25.6595L18.1688 25.6063L18.0625 27.7845L22.7906 30.8126L33.8937 27.7845L33.9469 25.872L30.0687 23.1626L19.3375 25.6595Z" fill="#699635"/>
<path d="M18.3812 24.3312C18.3812 24.3312 19.55 26.5625 23.0031 28.5812C23.0031 28.5812 28.5281 28.5813 34 25.1813C34 25.1813 30.9719 23.4281 30.2281 21.25C30.2281 21.25 27.9437 24.225 18.3812 24.3312Z" fill="#83BF4F"/>
<path d="M20.7719 24.9157C20.7719 24.9157 21.0375 25.3407 20.1875 25.5001L22.4188 27.2532C22.4188 27.2532 23.6938 26.9345 24.1188 27.6782C24.1188 27.6782 29.4313 26.722 31.875 25.447C31.875 25.447 31.0781 25.0751 31.875 24.597C31.875 24.597 30.9187 23.8001 30.5469 23.2688C30.5469 23.2688 29.6438 23.5345 29.1656 22.897C29.1656 22.9501 27.2531 24.6501 20.7719 24.9157Z" stroke="#699635" stroke-width="0.25" stroke-miterlimit="10"/>
<path d="M24.8625 26.2438C24.65 26.5095 23.9594 26.6157 23.375 26.4563C22.7906 26.297 22.525 25.9251 22.7375 25.6595C22.95 25.3938 23.6406 25.2876 24.225 25.447C24.8094 25.6063 25.075 25.9251 24.8625 26.2438Z" fill="#699635"/>
<path d="M23.8 23.9062C23.8 23.9062 25.075 25.6062 27.7844 27.8905L27.7312 29.4843L29.5906 28.953L29.6437 27.253C29.6437 27.253 26.8812 24.5968 26.1906 23.3218C26.2437 23.3218 25.3406 23.6937 23.8 23.9062Z" fill="#F9F3D9"/>
<path d="M24.4375 1.0625C24.4375 4.30312 20.2406 9.5625 17 9.5625C13.7594 9.5625 9.5625 4.83437 9.5625 1.59375C9.5625 -1.64687 10.0406 1.59375 13.2812 1.59375C13.7594 1.59375 15.9906 0 17 0C17.6906 0 19.6562 1.59375 20.7188 1.59375C23.5344 1.59375 24.4375 -1.38125 24.4375 1.0625Z" fill="#DBB471"/>
<path d="M16.0437 7.06539C15.725 7.27789 14.1844 7.11852 13.7062 7.49039C13.0687 7.96852 13.9719 9.08414 13.3344 9.77477C12.0594 11.0498 11.05 12.4841 11.3687 13.281C11.9 14.6623 12.9094 10.731 13.8125 12.2185C14.7156 13.706 14.5562 11.2091 15.9375 12.4841C17.3187 13.7591 16.15 10.1998 17.4781 11.7404C18.8062 13.281 18.8594 15.0341 19.8156 15.0341C20.9312 15.0341 18.6469 10.8373 20.1344 11.8466C21.6219 12.856 23.2687 12.4841 21.7812 10.9435C21.3031 10.4654 20.6656 9.61539 19.9219 8.87164C19.6562 8.60602 19.8687 7.22477 19.6031 7.01227C19.2844 6.74664 18.4875 7.59664 18.1687 7.43727C17.5312 7.11852 17.7437 7.70289 16.7875 7.86227C16.15 8.07477 16.6812 6.64039 16.0437 7.06539Z" fill="#89664C"/>
<path d="M9.9344 10.1998C12.0063 8.2342 15.7781 9.34983 18.0094 10.3061C20.1875 11.2623 21.5156 8.2342 20.1344 6.69358C19.3375 5.79045 18.0625 6.85295 17.5844 7.49045C17.0531 8.12795 16.6281 8.81858 16.0438 9.45608C15.1938 10.4123 13.1219 9.61545 13.7594 8.28733C14.45 6.90608 17.3719 8.49983 18.3281 8.76545C20.1875 9.2967 22.1531 9.5092 24.0125 8.81858C24.65 8.60608 24.3844 7.54358 23.7469 7.8092C21.675 8.55295 19.6031 8.07483 17.6375 7.43733C16.6281 7.11858 15.0344 6.26858 13.9719 6.7467C10.9438 8.18108 13.7594 12.2717 16.3094 10.678C16.8938 10.3061 17.2656 9.7217 17.6906 9.19045C17.9563 8.8717 19.2844 6.85295 19.6031 7.86233C19.7625 8.39358 19.6031 9.34983 19.0188 9.5092C18.6469 9.66858 17.9031 9.13733 17.5313 9.03108C16.8406 8.76545 16.15 8.55295 15.4063 8.39358C13.4406 7.96858 10.7844 8.07483 9.24377 9.5092C8.71252 9.9342 9.45627 10.678 9.9344 10.1998Z" fill="#E8E8E8"/>
<path d="M23.8 0.265625C23.2687 0.690625 22.3125 1.59375 20.7188 1.59375C19.6562 1.59375 17.6906 0 17 0C15.9906 0 13.7594 1.59375 13.2812 1.59375C11.5281 1.59375 10.5719 0.690625 10.0938 0.31875C10.0938 0.31875 10.6781 2.70938 12.4844 3.93125C13.8125 4.78125 13.6531 3.77188 14.3438 2.81563C15.0344 1.85938 15.5125 1.38125 16.7344 3.77187C17.3719 5.1 18.5938 0.159375 19.55 1.75312C21.3031 4.675 21.9406 3.08125 23.8 0.265625Z" fill="#89664C"/>
<path d="M27.8375 27.8377L27.7843 29.4314L29.6437 28.9002L29.6968 27.2002C29.6968 27.2533 28.5812 27.6783 27.8375 27.8377ZM26.4562 31.0252V32.5658L28.5281 31.9283V30.3346C28.475 30.2814 27.9437 30.6002 26.4562 31.0252ZM6.2156 31.4502L6.37497 32.9377L4.5156 32.5127L4.40935 30.9721C4.35622 30.9721 5.09997 31.2377 6.2156 31.4502Z" fill="#DBB471"/>
</g>
<defs>
<clipPath id="clip0_214_858">
<rect width="34" height="34" fill="white"/>
</clipPath>
</defs>
</svg>
