<svg width="25" height="25" viewBox="0 0 25 25" fill="none" xmlns="http://www.w3.org/2000/svg">
<g clip-path="url(#clip0_9_70)">
<path d="M4.42715 0.3125H20.5729C23.0209 0.3125 25 2.2916 25 4.73965V20.2604C25 22.7084 23.0209 24.6875 20.5729 24.6875H4.42715C1.9791 24.6875 0 22.7084 0 20.2604V4.73965C0 2.2916 1.9791 0.3125 4.42715 0.3125Z" fill="#001E36"/>
<path d="M8.9584 6.51025C8.6459 6.51025 8.3334 6.51025 8.01055 6.5208C7.6875 6.53115 7.38535 6.53115 7.1041 6.5417C6.82285 6.55205 6.5625 6.55205 6.3125 6.5624C6.07285 6.57275 5.90625 6.57275 5.7291 6.57275C5.65625 6.57275 5.625 6.61436 5.625 6.6874V17.4062C5.625 17.4999 5.6666 17.5417 5.75 17.5417H7.7709C7.84375 17.5312 7.8959 17.4687 7.88535 17.3958V14.0521C8.0832 14.0521 8.2291 14.0521 8.3334 14.0624C8.4375 14.0728 8.6041 14.0728 8.8541 14.0728C9.7084 14.0728 10.4896 13.979 11.1979 13.7187C11.875 13.4687 12.4584 13.0312 12.875 12.4478C13.2917 11.8644 13.5 11.1248 13.5 10.229C13.5 9.76025 13.4168 9.3124 13.2605 8.8749C13.095 8.42918 12.8356 8.02421 12.5 7.6874C12.1039 7.30257 11.627 7.01074 11.1041 6.83311C10.5207 6.61436 9.8125 6.51025 8.9584 6.51025ZM9.19082 8.56201C9.56191 8.56904 9.92324 8.63389 10.2604 8.77061C10.5625 8.88525 10.8125 9.09365 10.9896 9.36436C11.1558 9.64452 11.2389 9.96612 11.2293 10.2917C11.2293 10.7499 11.125 11.1042 10.9062 11.3646C10.677 11.6249 10.3854 11.8229 10.0521 11.9167C9.6666 12.0417 9.26035 12.104 8.8541 12.104H8.30195C8.17695 12.104 8.0418 12.0937 7.8959 12.0833V8.5833C7.96875 8.57275 8.11465 8.5624 8.32305 8.57295C8.5209 8.5624 8.76035 8.5624 9.03125 8.5624C9.08464 8.5611 9.13783 8.56097 9.19082 8.56201ZM17.9271 9.09385C17.1875 9.09385 16.5729 9.2083 16.0834 9.4583C15.6355 9.6667 15.25 9.9999 14.9896 10.4165C14.7605 10.8021 14.6354 11.229 14.6354 11.6771C14.6264 12.0456 14.7088 12.4105 14.875 12.7396C15.0698 13.0899 15.3403 13.3923 15.6668 13.6249C16.125 13.9383 16.6223 14.1905 17.1459 14.3749C17.6563 14.5728 18 14.729 18.1668 14.8644C18.3334 14.9999 18.4168 15.1353 18.4168 15.2812C18.4168 15.4687 18.3021 15.6458 18.1355 15.7187C17.948 15.8124 17.6668 15.8646 17.2709 15.8646C16.8543 15.8646 16.4375 15.8124 16.0416 15.7083C15.587 15.6068 15.1512 15.4346 14.75 15.1979C14.7187 15.1771 14.6875 15.1667 14.6562 15.1876C14.625 15.2083 14.6146 15.2499 14.6146 15.2812V17.0937C14.6043 17.177 14.6562 17.2499 14.7293 17.2915C15.0671 17.4493 15.4244 17.5614 15.7918 17.6249C16.2605 17.7187 16.7291 17.7603 17.2082 17.7603C17.9582 17.7603 18.5834 17.6458 19.0938 17.4271C19.5625 17.2396 19.9688 16.9167 20.2604 16.4999C20.5335 16.0902 20.6752 15.6069 20.6666 15.1146C20.6769 14.7426 20.5946 14.374 20.4271 14.0417C20.2291 13.6874 19.9479 13.3958 19.6041 13.1771C19.1012 12.8612 18.5628 12.606 18 12.4165C17.7487 12.3125 17.5019 12.1978 17.2604 12.0728C17.125 11.9999 17 11.9062 16.9062 11.7915C16.8438 11.7081 16.8021 11.6146 16.8021 11.5208C16.8021 11.4271 16.8334 11.3229 16.8854 11.2396C16.9584 11.1354 17.0729 11.0624 17.2082 11.0312C17.4063 10.9792 17.625 10.9478 17.8332 10.9581C18.2291 10.9581 18.6145 11.0103 19 11.0937C19.3543 11.1665 19.6875 11.2812 20 11.4479C20.0416 11.4687 20.0938 11.4687 20.1875 11.4479C20.2038 11.4359 20.217 11.4202 20.226 11.402C20.2351 11.3839 20.2398 11.3639 20.2396 11.3437V9.6458C20.2396 9.604 20.2291 9.5624 20.2188 9.5208C20.1979 9.4792 20.1562 9.4374 20.1146 9.42705C19.8273 9.30962 19.5263 9.2291 19.2188 9.1874C18.791 9.12512 18.3594 9.09399 17.9271 9.09385Z" fill="#31A8FF"/>
</g>
<defs>
<clipPath id="clip0_9_70">
<rect width="25" height="25" fill="white"/>
</clipPath>
</defs>
</svg>
