<svg width="33" height="33" viewBox="0 0 33 33" fill="none" xmlns="http://www.w3.org/2000/svg">
<path d="M5.96581 16.0976L2.73903 14.5146C2.73903 14.5146 1.7217 14.5513 1.97023 15.2463C1.97023 15.2463 2.39252 15.8357 2.4776 15.8372L5.31457 17.1407L5.92971 17.067L6.11224 16.59L5.96581 16.0976Z" fill="#939598"/>
<path d="M11.0571 17.4789L4.79327 14.6089C4.79327 14.6089 2.65755 14.5842 2.95713 15.7485C2.95713 15.7485 3.65632 16.7514 3.83782 16.7601L9.36996 19.1377L10.6781 19.0711L11.2087 18.3003L11.0571 17.4789Z" fill="#A7A9AC"/>
<path d="M19.4855 5.98704C19.4855 5.98704 16.0339 4.95837 13.5599 7.80719C13.5599 7.80719 10.593 10.7628 10.2125 11.7388L17.8711 12.1957C17.8711 12.1957 21.203 12.0853 22.291 9.59693C22.291 9.59693 20.7287 5.98962 19.4855 5.98755" fill="#27AAE1"/>
<path d="M19.4112 9.24965C18.8956 8.89541 18.117 6.7169 18.5367 5.82899C20.821 5.80579 21.4557 6.86024 21.4557 6.86024C22.028 6.86127 21.547 9.15993 21.7584 9.61368C20.9308 9.70237 20.1568 9.76063 19.4112 9.24965Z" fill="#1E88AD"/>
<path d="M16.4794 17.3316C16.4794 17.3316 12.3441 18.6717 8.70892 16.4829C8.70892 16.4829 6.88206 15.3542 5.41768 15.1356C5.41768 15.1356 2.61629 13.6645 2.46882 12.329C2.46882 12.329 2.87359 11.7273 4.29568 11.9995C4.29568 11.9995 7.936 11.2622 8.86361 11.8289C8.86361 11.8289 10.6379 13.3469 11.6634 13.5959L15.0996 13.0947L19.1854 12.295L22.6086 12.8679L23.7554 14.4374L20.4121 16.5319L16.4804 17.3316" fill="#25333A"/>
<path d="M10.1372 25.5975C10.1372 25.5975 10.0789 25.9063 9.86548 26.3585C9.57067 26.9735 9.16336 27.5279 8.66459 27.9931C7.24404 29.4363 5.0449 30.0092 3.18607 29.213C2.82448 29.0803 2.48245 28.8994 2.16926 28.6752C0.718293 27.5893 0.0964499 25.6124 0.135121 23.7536C0.188099 22.9932 0.373412 22.248 0.682715 21.5514C1.30043 20.1484 2.40697 18.9397 3.85845 18.2988C4.15424 18.1688 4.46061 18.0642 4.7742 17.9863C6.1241 17.6532 7.95406 17.7543 9.8794 19.4889C9.8794 19.4889 11.416 23.65 10.1372 25.5975Z" fill="#2C3B44"/>
<path d="M3.21186 19.7998C3.46635 19.655 3.73206 19.5309 4.00644 19.4286C4.46844 19.26 4.88506 19.1924 5.25941 19.1986C7.127 19.2254 7.93189 21.0616 7.93189 21.0616C7.94014 21.0714 7.9453 21.0832 7.95251 21.0936L7.41214 20.5676C7.41214 20.5676 4.6752 19.524 3.13194 23.3468C3.13194 23.3468 2.29559 26.7066 4.77369 27.3723L5.37491 27.1423C4.46483 27.5616 3.73883 27.5837 3.17319 27.4259C2.60909 27.2692 2.20639 26.932 1.94445 26.6355C1.11791 25.712 1.02097 24.5379 1.07047 23.419C1.10244 22.8951 1.2597 22.3759 1.49586 21.8866C1.73295 21.4008 2.03267 20.9482 2.38737 20.5403C2.82927 20.0541 3.21186 19.7998 3.21186 19.7998Z" fill="#25333A"/>
<path d="M3.13189 23.3474C4.67515 19.5245 7.41209 20.5682 7.41209 20.5682L7.95246 21.0941C8.66506 22.1939 7.58018 25.0216 7.58018 25.0216C7.30381 25.4857 7.05373 25.8394 6.83047 26.1085C6.19418 26.7902 5.5017 27.3347 4.55089 27.3445C4.28173 27.2945 4.02495 27.1511 3.80942 26.8804C3.55573 26.6443 3.37474 26.3648 3.24893 26.0611C2.74878 24.8551 3.13189 23.3474 3.13189 23.3474Z" fill="#DD2D30"/>
<path d="M5.74821 22.0986C5.74821 22.0986 4.30807 20.2073 2.9592 22.0831C2.9592 22.0831 1.37417 24.6577 4.4045 25.1872C4.4045 25.1872 5.83639 24.6845 6.26693 23.4794L6.31592 22.5668L5.74821 22.1002" fill="#26292D"/>
<path d="M11.9192 19.5029C11.9192 19.5029 8.38561 18.1123 9.10697 21.9228C9.10697 21.9228 10.4857 23.2655 10.6379 23.0793C10.7905 22.8921 12.2817 22.3631 12.2817 22.3631L13.0242 21.7454L11.9192 19.5029Z" fill="#F05E27"/>
<path d="M25.3636 13.8423C25.3636 13.8423 23.7657 10.5047 20.6332 11.6839C20.6332 11.6839 17.2121 12.2253 15.1403 15.2835C15.1403 15.2835 13.2526 17.1119 12.4116 17.0866C12.4116 17.0866 9.76387 20.8682 13.4315 22.609L19.073 17.5796L23.9838 15.086L25.3636 13.8423Z" fill="#26292D"/>
<path d="M23.3201 26.1815C23.3201 26.1815 22.8391 27.124 21.7516 27.1338C21.7516 27.1338 11.3035 27.1637 10.544 27.3241C10.544 27.3241 8.10664 25.5606 8.02362 22.932C8.02362 22.932 9.15748 22.1281 9.87677 22.5231C9.87677 22.5231 11.9712 25.1461 13.4562 21.5615C13.4562 21.5615 15.3646 20.5158 16.7758 21.0567C16.7758 21.0567 20.1671 22.2993 20.6869 21.366C20.6879 21.366 24.8376 23.5719 23.3201 26.1815Z" fill="#991D32"/>
<path d="M27.0899 13.7987C27.0899 13.7987 23.5832 12.9386 22.5318 14.4448C22.5318 14.4448 21.0808 15.1357 20.5848 15.1079C20.5848 15.1079 17.7798 15.4719 14.6293 17.9933C14.6293 17.9933 12.2616 20.4502 15.6302 21.7816C15.6302 21.7816 20.5848 23.7941 21.7197 22.6138L25.5889 16.7089L27.8695 16.4629L28.9369 16.2902L27.0899 13.7987Z" fill="#D3203A"/>
<path d="M17.9747 17.5003C17.32 17.3474 16.6691 17.1787 16.0226 16.9944C17.5065 16.0462 18.8167 15.5605 19.6474 15.3223C21.0324 15.6136 22.4534 15.8374 23.6894 16.55C24.1839 16.8356 24.6077 17.2028 25.0016 17.6055L23.9018 19.2848C22.0641 18.3536 19.9918 17.9617 17.9763 17.5003" fill="#E07E83"/>
<path d="M29.6108 18.5934C29.6108 18.5934 31.7084 17.8422 30.2306 17.0594C30.2306 17.0594 26.8104 15.3347 25.4734 15.5487C25.4734 15.5487 18.5759 18.3098 20.4853 20.6539C20.4853 20.6539 21.4892 22.4235 21.5743 23.2629C21.5743 23.2629 22.8092 23.6723 23.1902 23.2536L26.3098 19.4834L29.6098 18.5934" fill="#991D32"/>
<path d="M25.9576 11.6687C25.9576 11.6687 25.5224 10.802 24.9011 10.7886L23.3387 11.182L23.1789 10.8695L22.2631 11.1583L22.1095 11.5832L19.1209 12.6685C19.1209 12.6685 18.893 12.9949 19.37 13.2718L22.3111 12.2901L22.8123 12.3019L23.5553 12.1694L23.6094 11.9075L24.2019 12.5561L25.9406 12.4845L25.9586 11.6687" fill="#121416"/>
<path d="M1.97482 10.4484C1.97482 10.4484 1.87479 11.6204 4.05795 12.2608C4.05795 12.2608 7.3925 12.7568 8.4784 12.3356L8.57173 11.6849L7.4652 11.2265L6.99186 10.83L6.47829 10.5959C6.47829 10.5959 2.66215 9.95494 1.97689 10.4484M30.7596 19.3208C30.7596 19.3208 32.3426 20.137 32.8484 22.0592C32.9574 22.4802 33.0081 22.9141 32.9989 23.3488C32.8989 26.4683 30.542 29.4275 27.4611 29.7642C26.9582 29.7873 26.455 29.7256 25.9725 29.5817C25.4487 29.428 24.9 29.1738 24.3272 28.7923C24.3272 28.7923 21.8382 27.3031 22.5235 22.9894L24.4917 19.3331L28.4475 18.4442L30.7596 19.3208Z" fill="#2C3B44"/>
<path d="M29.4999 20.3693C29.4999 20.3693 30.2368 20.7499 30.7189 21.6171C30.8978 21.9376 31.0203 22.2864 31.0809 22.6484C31.2819 24.8542 29.9697 27.2282 27.754 27.8562C27.3102 27.9719 26.8466 27.9907 26.3949 27.9114C25.9045 27.8263 25.3801 27.62 24.8263 27.2514C24.8263 27.2514 23.0144 26.168 23.5141 23.0336L24.9444 20.376L27.819 19.7305L29.4999 20.3652" fill="#25333A"/>
<path d="M28.4754 21.3966C28.4754 21.3966 30.3569 22.367 29.0607 24.8564C29.0607 24.8564 27.6164 27.2066 25.491 25.7918C25.491 25.7918 24.338 25.1003 24.6546 23.0987L25.5668 21.4022L27.4024 20.9897L28.4754 21.3966Z" fill="#DD2D30"/>
<path d="M31.5764 19.2073C31.5764 19.2073 30.0094 17.3216 26.6655 17.9925C26.6655 17.9925 25.295 17.9579 25.1512 18.77C25.1512 18.77 25.8576 22.3196 26.533 23.5019C26.533 23.5019 26.3675 25.1364 27.6339 24.0361C27.6339 24.0361 27.9087 22.0515 27.5514 21.2172C27.5514 21.2172 27.2198 19.4068 28.6141 19.4213C28.6146 19.4207 30.9927 19.7012 31.5764 19.2073Z" fill="#374149"/>
<path d="M26.8898 21.9737C26.8898 21.9737 25.1568 19.5812 24.3065 23.7666C24.3065 23.7666 25.5889 25.6759 26.9419 23.9641L27.1868 22.8116L26.8903 22.0552" fill="#323C45"/>
<path d="M10.1836 25.8432C10.1836 25.8432 5.59557 24.4809 4.92578 23.9833C4.92578 23.9833 3.33456 24.4855 3.26649 23.4367C3.26649 23.4367 3.02003 21.7058 5.03406 22.2611L5.23464 22.0786C5.23464 22.0786 7.48998 21.037 10.4167 21.8543C10.4167 21.8543 12.8855 21.6367 13.5713 20.8452C13.5707 20.8457 18.0072 24.2757 10.1836 25.8432Z" fill="#46484E"/>
<path d="M11.8934 10.7874C11.8934 10.7874 16.2922 10.4693 15.3033 12.7649C14.3143 15.0604 15.3064 12.9438 15.3064 12.9438C15.3064 12.9438 14.1467 15.705 12.6184 16.4887C11.0885 17.2745 12.588 16.6269 12.588 16.6269L10.4822 16.251C10.4822 16.251 11.8187 13.6677 12.0842 13.4228C12.0842 13.4228 11.2788 14.8464 10.1207 12.8102C10.1217 12.8097 9.80825 10.6575 11.8934 10.7874Z" fill="#265D70"/>
<path d="M13.1691 16.3296C13.1691 16.3296 11.0421 14.8023 10.4631 16.375C10.4631 16.375 9.56846 18.668 9.12399 19.0289C9.12399 19.0289 7.854 20.0014 8.71922 20.93C8.71922 20.93 10.1001 22.5052 11.3128 22.5563C11.3128 22.5563 12.5024 22.1479 11.6707 21.061C11.6707 21.061 11.5794 19.5677 11.7423 19.181C11.7423 19.181 13.1294 16.6947 13.167 16.3296" fill="#2C3B44"/>
<path d="M19.0797 11.5177C19.0797 11.5177 18.1871 11.049 16.6655 11.246C16.6655 11.246 18.2877 8.23321 17.4926 7.35304C17.4926 7.35304 15.5446 6.16091 14.8196 8.13988C14.8196 8.13988 13.8265 11.857 13.8616 12.6444C13.8616 12.6444 14.2524 13.6751 15.8416 13.3694C15.8416 13.3694 18.3877 13.5034 19.1493 12.7851L19.0797 11.5177Z" fill="#1E88AD"/>
<path d="M21.7588 10.9003C21.7588 10.9003 23.7791 12.3451 20.9643 13.1701C20.9643 13.1701 19.5824 12.9783 18.9301 13.1783C18.9301 13.1783 17.0006 12.0569 19.1163 11.1855C19.1163 11.1855 20.5693 11.3592 20.726 11.2566C20.726 11.2566 21.054 10.5806 21.7573 10.9003" fill="#2C3B44"/>
<path d="M21.1659 5.86285C21.2144 4.91204 21.6537 5.22966 21.6537 5.22966C21.6537 5.22966 21.6496 5.22296 21.6449 5.21162C21.6516 5.22348 21.6557 5.23482 21.663 5.24719C22.6896 7.26483 24.6376 6.8513 24.6428 6.85027C24.3385 8.12438 23.5166 9.03085 22.9732 9.51348C20.7044 8.5508 21.1659 5.86285 21.1659 5.86285Z" fill="#63BED6"/>
<path d="M21.8491 3.23828C24.5788 3.28469 24.717 6.46094 24.717 6.46094C24.697 6.595 24.6723 6.72494 24.6427 6.85075C24.6376 6.85178 22.6895 7.2648 21.6629 5.24767C21.6557 5.2353 21.6521 5.22395 21.6449 5.21209L21.6537 5.23014C21.6547 5.23117 21.2143 4.912 21.1659 5.86333C21.1659 5.86333 20.7044 8.5518 22.9731 9.51447C22.6756 9.77847 22.4611 9.91562 22.4611 9.91562C20.4327 9.66297 19.4478 6.94098 19.4478 6.94098C18.4382 3.50331 21.8491 3.23828 21.8491 3.23828Z" fill="#25333A"/>
<path d="M29.6516 11.4871C29.6516 11.4871 27.5787 8.84963 26.6599 8.63565C26.6599 8.63565 22.9474 7.66473 22.5782 9.57305L25.7967 11.4963L27.4215 12.1703L28.0433 12.0831L29.6516 11.4871Z" fill="#DD2D30"/>
<path d="M29.9155 17.2642C29.9155 17.2642 31.6145 17.159 31.3768 15.4332C31.3768 15.4332 30.9442 12.6401 29.4607 11.2979C29.4607 11.2979 28.3753 10.9277 27.3554 11.7816C27.3554 11.7816 25.3713 9.4984 21.9357 9.23389C21.9357 9.23389 21.4448 10.0145 22.3167 10.2925C22.3167 10.2925 26.0086 10.8906 25.6812 12.8696C25.6812 12.8696 25.9308 14.3195 26.9955 15.012C26.9955 15.012 28.7698 16.7388 29.7381 17.224" fill="#26292D"/>
<path d="M28.1954 12.2026C28.1954 12.2026 31.1128 14.3502 30.5662 16.1601C30.5662 16.1601 30.5673 16.6551 29.9692 16.1281C29.371 15.6011 29.9511 16.1967 29.9511 16.1967C29.9511 16.1967 28.7925 16.1106 28.8404 15.0123L28.3671 14.4111C28.3671 14.4116 28.7461 13.3587 28.1954 12.2026Z" fill="#A7A9AC"/>
<path fill-rule="evenodd" clip-rule="evenodd" d="M16.2056 8.32714C16.1772 8.36581 16.1138 8.36994 16.0705 8.34055C16.0453 8.32164 16.026 8.29591 16.0149 8.2664C16.0039 8.23688 16.0015 8.20482 16.0081 8.174C16.0349 8.04715 16.1556 7.99456 16.2556 8.0059C16.3984 8.02395 16.4959 8.14358 16.4959 8.29723C16.4959 8.49626 16.3412 8.61898 16.1618 8.63136C15.9705 8.64579 15.8029 8.52359 15.7477 8.33075C15.73 8.26396 15.7269 8.19411 15.7389 8.12604C15.7508 8.05797 15.7774 7.9933 15.8167 7.93651C15.8561 7.87972 15.9074 7.83217 15.9669 7.79714C16.0265 7.76211 16.093 7.74045 16.1618 7.73365C16.5098 7.69447 16.7738 7.96672 16.7728 8.29517C16.7717 8.53184 16.6635 8.70922 16.4582 8.82781C16.4077 8.85875 16.3897 8.92372 16.4196 8.97683C16.4366 9.00622 16.4412 9.00879 16.4732 8.99333C16.6047 8.93241 16.717 8.83643 16.7975 8.71592C16.9476 8.49317 16.9651 8.2565 16.8651 8.00848C16.7944 7.83369 16.6727 7.71045 16.5031 7.63414C16.2205 7.50626 15.8147 7.58567 15.6415 7.93372C15.4842 8.24928 15.6255 8.57825 15.8771 8.72056C16.1241 8.86029 16.4567 8.77161 16.5938 8.5272C16.7186 8.3029 16.6366 8.00384 16.4051 7.89401C16.2329 7.81151 15.9916 7.85019 15.8895 8.05489C15.8086 8.21628 15.8678 8.40758 16.0153 8.48234C16.1602 8.55556 16.3041 8.49317 16.3598 8.38644C16.3828 8.34169 16.3874 8.28968 16.3726 8.24157C16.3577 8.19347 16.3246 8.1531 16.2803 8.12914C16.2138 8.09459 16.1164 8.13687 16.0988 8.21061C16.0955 8.22412 16.0953 8.2382 16.0981 8.25182C16.101 8.26543 16.1069 8.27824 16.1153 8.28928C16.1238 8.30032 16.1346 8.30931 16.147 8.3156C16.1594 8.32188 16.1731 8.3253 16.187 8.32559L16.2066 8.32714" fill="#FD7D23"/>
</svg>
