<svg width="30" height="30" viewBox="0 0 30 30" fill="none" xmlns="http://www.w3.org/2000/svg">
<path d="M15 27.5C13.2708 27.5 11.6458 27.1717 10.125 26.515C8.60417 25.8583 7.28125 24.9679 6.15625 23.8438C5.03125 22.7196 4.14084 21.3967 3.485 19.875C2.82917 18.3533 2.50083 16.7283 2.5 15C2.49917 13.2717 2.8275 11.6467 3.485 10.125C4.1425 8.60333 5.03292 7.28042 6.15625 6.15625C7.27958 5.03208 8.6025 4.14167 10.125 3.485C11.6475 2.82833 13.2725 2.5 15 2.5C18.0417 2.5 20.7033 3.45333 22.985 5.36C25.2667 7.26667 26.6883 9.65708 27.25 12.5312H24.6875C24.2917 11.0104 23.5779 9.65125 22.5463 8.45375C21.5146 7.25625 20.2492 6.355 18.75 5.75V6.25C18.75 6.9375 18.5054 7.52625 18.0163 8.01625C17.5271 8.50625 16.9383 8.75083 16.25 8.75H13.75V11.25C13.75 11.6042 13.63 11.9013 13.39 12.1413C13.15 12.3813 12.8533 12.5008 12.5 12.5H10V15H12.5V18.75H11.25L5.25 12.75C5.1875 13.125 5.13042 13.5 5.07875 13.875C5.02709 14.25 5.00083 14.625 5 15C5 17.7292 5.95834 20.0729 7.875 22.0312C9.79167 23.9896 12.1667 24.9792 15 25V27.5ZM26.375 26.875L22.375 22.875C21.9375 23.125 21.4688 23.3333 20.9688 23.5C20.4688 23.6667 19.9375 23.75 19.375 23.75C17.8125 23.75 16.4846 23.2033 15.3913 22.11C14.2979 21.0167 13.7508 19.6883 13.75 18.125C13.7492 16.5617 14.2963 15.2337 15.3913 14.1412C16.4863 13.0487 17.8142 12.5017 19.375 12.5C20.9358 12.4983 22.2642 13.0454 23.36 14.1412C24.4558 15.2371 25.0025 16.565 25 18.125C25 18.6875 24.9167 19.2188 24.75 19.7188C24.5833 20.2188 24.375 20.6875 24.125 21.125L28.125 25.125L26.375 26.875ZM19.375 21.25C20.25 21.25 20.9896 20.9479 21.5938 20.3438C22.1979 19.7396 22.5 19 22.5 18.125C22.5 17.25 22.1979 16.5104 21.5938 15.9062C20.9896 15.3021 20.25 15 19.375 15C18.5 15 17.7604 15.3021 17.1563 15.9062C16.5521 16.5104 16.25 17.25 16.25 18.125C16.25 19 16.5521 19.7396 17.1563 20.3438C17.7604 20.9479 18.5 21.25 19.375 21.25Z" fill="#FD6F00"/>
</svg>
