<svg width="21" height="21" viewBox="0 0 21 21" fill="none" xmlns="http://www.w3.org/2000/svg">
<path d="M19.3363 9.6967L9.6967 19.3363C7.47844 21.5546 3.88196 21.5546 1.6637 19.3363C-0.554566 17.118 -0.554566 13.5216 1.6637 11.3033L11.3033 1.6637C13.5216 -0.554566 17.118 -0.554566 19.3363 1.6637C21.5546 3.88196 21.5546 7.47844 19.3363 9.6967Z" fill="#FF4646"/>
<path d="M18.533 10.5002L14.5165 14.5167L10.5 10.5002L14.5165 6.48369C15.6256 5.37458 17.4239 5.37458 18.533 6.48369C19.6421 7.59279 19.6421 9.39108 18.533 10.5002Z" fill="#CD3232"/>
<path d="M14.5165 14.5159L9.6967 19.3357C7.47844 21.554 3.88196 21.554 1.6637 19.3357C-0.554566 17.1174 -0.554566 13.521 1.6637 11.3027L6.4835 6.48291L14.5165 14.5159Z" fill="#23AAE6"/>
<path d="M2.46562 10.4994L6.48212 6.48291L10.4986 10.4994L6.48212 14.5159C5.37301 15.625 3.57473 15.625 2.46562 14.5159C1.35651 13.4068 1.35651 11.6085 2.46562 10.4994Z" fill="#5AD7FF"/>
<path d="M4.07261 12.1063L8.08911 8.08984L8.89241 8.89314L4.87591 12.9096C4.6541 13.1315 4.29442 13.1315 4.07261 12.9096C3.8508 12.6878 3.8508 12.3282 4.07261 12.1063Z" fill="#A5FFFF"/>
<path d="M14.1146 3.6723L8.89314 8.89375L8.08984 8.09045L13.3113 2.869C13.5331 2.64718 13.8928 2.64718 14.1146 2.869C14.3364 3.09081 14.3364 3.45048 14.1146 3.6723Z" fill="#FF7878"/>
</svg>
